# xmcd CD database file
#
# Track frame offsets:
#	150
#	21880
#	37777
#	55797
#	77677
#	93725
#
# Disc length: 1486 seconds
#
# Revision: 0
# Processed by: cddbd v1.5.1PL0 Copyright (c) Steve Scherf et al.
# Submitted via: CDex 1.51
#
DISCID=3d05cc06
DTITLE=西田エリ - BLUE2
DYEAR=2005
DGENRE=Pop
TTITLE0=BLUE2
TTITLE1=Rain 〜もう一度会いたい〜
TTITLE2=Your Dream
TTITLE3=BLUE2 -Original Karaoke-
TTITLE4=Rain 〜もう一度会いたい〜-Original Karaoke-
TTITLE5=Your Dream -Original Karaoke-
EXTD=YEAR: 2005
EXTT0=
EXTT1=
EXTT2=
EXTT3=
EXTT4=
EXTT5=
PLAYORDER=
